<mxfile host="app.diagrams.net" modified="2022-05-03T06:10:49.065Z" agent="5.0 (Macintosh; Intel Mac OS X 10_15_7) AppleWebKit/537.36 (KHTML, like Gecko) Chrome/100.0.4896.127 Safari/537.36" etag="13v5ZMz72s-1tXzx7DOH" version="17.5.0" type="github">
  <diagram id="3228e29e-7158-1315-38df-8450db1d8a1d" name="Page-1">
    <mxGraphModel dx="1144" dy="-201" grid="0" gridSize="10" guides="1" tooltips="1" connect="1" arrows="1" fold="1" page="1" pageScale="1" pageWidth="500" pageHeight="300" background="#EFF1F3" math="0" shadow="0">
      <root>
        <mxCell id="0" />
        <mxCell id="1" parent="0" />
        <mxCell id="Wp8-4_sJjOrjRNukB6Yj-1" value="user_name" style="rounded=0;whiteSpace=wrap;html=1;fillColor=#4A919B;gradientColor=none;fontSize=14;fontColor=#FFFFFF;" parent="1" vertex="1">
          <mxGeometry x="263" y="925" width="105" height="25" as="geometry" />
        </mxCell>
        <mxCell id="Wp8-4_sJjOrjRNukB6Yj-2" value="content" style="rounded=0;whiteSpace=wrap;html=1;fillColor=#4A919B;gradientColor=none;fontSize=14;fontColor=#FFFFFF;" parent="1" vertex="1">
          <mxGeometry x="368" y="925" width="105" height="25" as="geometry" />
        </mxCell>
        <mxCell id="Wp8-4_sJjOrjRNukB6Yj-3" value="id" style="rounded=0;whiteSpace=wrap;html=1;fillColor=#4A919B;gradientColor=none;fontSize=14;fontColor=#FFFFFF;" parent="1" vertex="1">
          <mxGeometry x="158" y="925" width="105" height="25" as="geometry" />
        </mxCell>
        <mxCell id="Wp8-4_sJjOrjRNukB6Yj-4" value="小白1" style="rounded=0;whiteSpace=wrap;html=1;fillColor=#9AC7BF;gradientColor=none;fontSize=14;fontColor=#000000;" parent="1" vertex="1">
          <mxGeometry x="263" y="950" width="105" height="25" as="geometry" />
        </mxCell>
        <mxCell id="Wp8-4_sJjOrjRNukB6Yj-5" value="xx" style="rounded=0;whiteSpace=wrap;html=1;fillColor=#9AC7BF;gradientColor=none;fontSize=14;fontColor=#000000;" parent="1" vertex="1">
          <mxGeometry x="368" y="950" width="105" height="25" as="geometry" />
        </mxCell>
        <mxCell id="Wp8-4_sJjOrjRNukB6Yj-6" value="1" style="rounded=0;whiteSpace=wrap;html=1;fillColor=#9AC7BF;gradientColor=none;fontSize=14;fontColor=#000000;" parent="1" vertex="1">
          <mxGeometry x="158" y="950" width="105" height="25" as="geometry" />
        </mxCell>
        <mxCell id="Wp8-4_sJjOrjRNukB6Yj-7" value="小白2" style="rounded=0;whiteSpace=wrap;html=1;fillColor=#9AC7BF;gradientColor=none;fontSize=14;fontColor=#000000;" parent="1" vertex="1">
          <mxGeometry x="263" y="975" width="105" height="25" as="geometry" />
        </mxCell>
        <mxCell id="Wp8-4_sJjOrjRNukB6Yj-8" value="xx" style="rounded=0;whiteSpace=wrap;html=1;fillColor=#9AC7BF;gradientColor=none;fontSize=14;fontColor=#000000;" parent="1" vertex="1">
          <mxGeometry x="368" y="975" width="105" height="25" as="geometry" />
        </mxCell>
        <mxCell id="Wp8-4_sJjOrjRNukB6Yj-9" value="2" style="rounded=0;whiteSpace=wrap;html=1;fillColor=#9AC7BF;gradientColor=none;fontSize=14;fontColor=#000000;" parent="1" vertex="1">
          <mxGeometry x="158" y="975" width="105" height="25" as="geometry" />
        </mxCell>
        <mxCell id="Wp8-4_sJjOrjRNukB6Yj-10" value="····" style="rounded=0;whiteSpace=wrap;html=1;fillColor=#9AC7BF;gradientColor=none;fontSize=14;fontColor=#000000;" parent="1" vertex="1">
          <mxGeometry x="263" y="1000" width="105" height="25" as="geometry" />
        </mxCell>
        <mxCell id="Wp8-4_sJjOrjRNukB6Yj-11" value="····" style="rounded=0;whiteSpace=wrap;html=1;fillColor=#9AC7BF;gradientColor=none;fontSize=14;fontColor=#000000;" parent="1" vertex="1">
          <mxGeometry x="368" y="1000" width="105" height="25" as="geometry" />
        </mxCell>
        <mxCell id="Wp8-4_sJjOrjRNukB6Yj-12" value="····" style="rounded=0;whiteSpace=wrap;html=1;fillColor=#9AC7BF;gradientColor=none;fontSize=14;fontColor=#000000;" parent="1" vertex="1">
          <mxGeometry x="158" y="1000" width="105" height="25" as="geometry" />
        </mxCell>
        <mxCell id="Wp8-4_sJjOrjRNukB6Yj-13" value="小白10" style="rounded=0;whiteSpace=wrap;html=1;fillColor=#9AC7BF;gradientColor=none;fontSize=14;fontColor=#000000;" parent="1" vertex="1">
          <mxGeometry x="263" y="1025" width="105" height="25" as="geometry" />
        </mxCell>
        <mxCell id="Wp8-4_sJjOrjRNukB6Yj-14" value="xx" style="rounded=0;whiteSpace=wrap;html=1;fillColor=#9AC7BF;gradientColor=none;fontSize=14;fontColor=#000000;" parent="1" vertex="1">
          <mxGeometry x="368" y="1025" width="105" height="25" as="geometry" />
        </mxCell>
        <mxCell id="Wp8-4_sJjOrjRNukB6Yj-15" value="10" style="rounded=0;whiteSpace=wrap;html=1;fillColor=#9AC7BF;gradientColor=none;fontSize=14;fontColor=#000000;" parent="1" vertex="1">
          <mxGeometry x="158" y="1025" width="105" height="25" as="geometry" />
        </mxCell>
        <mxCell id="Wp8-4_sJjOrjRNukB6Yj-16" value="····" style="rounded=0;whiteSpace=wrap;html=1;fillColor=#CCCCCC;gradientColor=none;fontSize=14;fontColor=#000000;" parent="1" vertex="1">
          <mxGeometry x="263" y="1050" width="105" height="25" as="geometry" />
        </mxCell>
        <mxCell id="Wp8-4_sJjOrjRNukB6Yj-17" value="····" style="rounded=0;whiteSpace=wrap;html=1;fillColor=#CCCCCC;gradientColor=none;fontSize=14;fontColor=#000000;" parent="1" vertex="1">
          <mxGeometry x="368" y="1050" width="105" height="25" as="geometry" />
        </mxCell>
        <mxCell id="Wp8-4_sJjOrjRNukB6Yj-18" value="····" style="rounded=0;whiteSpace=wrap;html=1;fillColor=#CCCCCC;gradientColor=none;fontSize=14;fontColor=#000000;" parent="1" vertex="1">
          <mxGeometry x="158" y="1050" width="105" height="25" as="geometry" />
        </mxCell>
        <mxCell id="Wp8-4_sJjOrjRNukB6Yj-19" value="小白991" style="rounded=0;whiteSpace=wrap;html=1;fillColor=#9AC7BF;gradientColor=none;fontSize=14;fontColor=#000000;" parent="1" vertex="1">
          <mxGeometry x="263" y="1075" width="105" height="25" as="geometry" />
        </mxCell>
        <mxCell id="Wp8-4_sJjOrjRNukB6Yj-20" value="xx" style="rounded=0;whiteSpace=wrap;html=1;fillColor=#9AC7BF;gradientColor=none;fontSize=14;fontColor=#000000;" parent="1" vertex="1">
          <mxGeometry x="368" y="1075" width="105" height="25" as="geometry" />
        </mxCell>
        <mxCell id="Wp8-4_sJjOrjRNukB6Yj-21" value="991" style="rounded=0;whiteSpace=wrap;html=1;fillColor=#9AC7BF;gradientColor=none;fontSize=14;fontColor=#000000;" parent="1" vertex="1">
          <mxGeometry x="158" y="1075" width="105" height="25" as="geometry" />
        </mxCell>
        <mxCell id="Wp8-4_sJjOrjRNukB6Yj-22" value="小白992" style="rounded=0;whiteSpace=wrap;html=1;fillColor=#9AC7BF;gradientColor=none;fontSize=14;fontColor=#000000;" parent="1" vertex="1">
          <mxGeometry x="263" y="1100" width="105" height="25" as="geometry" />
        </mxCell>
        <mxCell id="Wp8-4_sJjOrjRNukB6Yj-23" value="xx" style="rounded=0;whiteSpace=wrap;html=1;fillColor=#9AC7BF;gradientColor=none;fontSize=14;fontColor=#000000;" parent="1" vertex="1">
          <mxGeometry x="368" y="1100" width="105" height="25" as="geometry" />
        </mxCell>
        <mxCell id="Wp8-4_sJjOrjRNukB6Yj-24" value="992" style="rounded=0;whiteSpace=wrap;html=1;fillColor=#9AC7BF;gradientColor=none;fontSize=14;fontColor=#000000;" parent="1" vertex="1">
          <mxGeometry x="158" y="1100" width="105" height="25" as="geometry" />
        </mxCell>
        <mxCell id="Wp8-4_sJjOrjRNukB6Yj-25" value="····" style="rounded=0;whiteSpace=wrap;html=1;fillColor=#9AC7BF;gradientColor=none;fontSize=14;fontColor=#000000;" parent="1" vertex="1">
          <mxGeometry x="263" y="1125" width="105" height="25" as="geometry" />
        </mxCell>
        <mxCell id="Wp8-4_sJjOrjRNukB6Yj-26" value="····" style="rounded=0;whiteSpace=wrap;html=1;fillColor=#9AC7BF;gradientColor=none;fontSize=14;fontColor=#000000;" parent="1" vertex="1">
          <mxGeometry x="368" y="1125" width="105" height="25" as="geometry" />
        </mxCell>
        <mxCell id="Wp8-4_sJjOrjRNukB6Yj-27" value="····" style="rounded=0;whiteSpace=wrap;html=1;fillColor=#9AC7BF;gradientColor=none;fontSize=14;fontColor=#000000;" parent="1" vertex="1">
          <mxGeometry x="158" y="1125" width="105" height="25" as="geometry" />
        </mxCell>
        <mxCell id="Wp8-4_sJjOrjRNukB6Yj-28" value="小白1000" style="rounded=0;whiteSpace=wrap;html=1;fillColor=#9AC7BF;gradientColor=none;fontSize=14;fontColor=#000000;" parent="1" vertex="1">
          <mxGeometry x="263" y="1150" width="105" height="25" as="geometry" />
        </mxCell>
        <mxCell id="Wp8-4_sJjOrjRNukB6Yj-29" value="xx" style="rounded=0;whiteSpace=wrap;html=1;fillColor=#9AC7BF;gradientColor=none;fontSize=14;fontColor=#000000;" parent="1" vertex="1">
          <mxGeometry x="368" y="1150" width="105" height="25" as="geometry" />
        </mxCell>
        <mxCell id="Wp8-4_sJjOrjRNukB6Yj-30" value="1000" style="rounded=0;whiteSpace=wrap;html=1;fillColor=#9AC7BF;gradientColor=none;fontSize=14;fontColor=#000000;" parent="1" vertex="1">
          <mxGeometry x="158" y="1150" width="105" height="25" as="geometry" />
        </mxCell>
        <mxCell id="Wp8-4_sJjOrjRNukB6Yj-31" value="" style="shape=curlyBracket;whiteSpace=wrap;html=1;rounded=1;fontSize=14;fontColor=#000000;fillColor=#CCCCCC;strokeWidth=2;" parent="1" vertex="1">
          <mxGeometry x="126" y="950" width="20" height="100" as="geometry" />
        </mxCell>
        <mxCell id="Wp8-4_sJjOrjRNukB6Yj-32" value="&lt;font color=&quot;#ea4435&quot;&gt;start_id = 0&lt;/font&gt;&lt;br&gt;batch 1" style="text;html=1;strokeColor=none;fillColor=none;align=center;verticalAlign=middle;whiteSpace=wrap;rounded=0;fontSize=14;fontColor=#000000;" parent="1" vertex="1">
          <mxGeometry x="33" y="985" width="83" height="30" as="geometry" />
        </mxCell>
        <mxCell id="Wp8-4_sJjOrjRNukB6Yj-33" value="" style="shape=curlyBracket;whiteSpace=wrap;html=1;rounded=1;fontSize=14;fontColor=#000000;fillColor=#CCCCCC;strokeWidth=2;" parent="1" vertex="1">
          <mxGeometry x="126" y="1075" width="20" height="100" as="geometry" />
        </mxCell>
        <mxCell id="gs7nYuJbROrhf63BGhQ_-4" value="&lt;font color=&quot;#ea4435&quot;&gt;start_id = 990&lt;/font&gt;&lt;br&gt;batch 100" style="text;html=1;strokeColor=none;fillColor=none;align=center;verticalAlign=middle;whiteSpace=wrap;rounded=0;fontSize=14;fontColor=#000000;" parent="1" vertex="1">
          <mxGeometry x="28" y="1110" width="93" height="30" as="geometry" />
        </mxCell>
      </root>
    </mxGraphModel>
  </diagram>
</mxfile>
